<svg width="20" height="20" viewBox="0 0 20 20" fill="none" xmlns="http://www.w3.org/2000/svg">
<path d="M15.4919 4.89606C14.4669 4.42225 13.3753 4.07313 12.2253 3.87363C12.0836 4.123 11.9169 4.46381 11.8086 4.73813C10.5919 4.55525 9.38359 4.55525 8.19193 4.73813C8.07526 4.46381 7.90859 4.123 7.76693 3.87363C6.61693 4.07313 5.52526 4.42225 4.50026 4.89606C2.43359 8.00494 1.87526 11.039 2.15026 14.0232C3.52526 15.0456 4.85026 15.6608 6.15859 16.0681C6.48359 15.6275 6.76693 15.1537 7.01693 14.6633C6.54193 14.4887 6.09193 14.2643 5.66693 14.0066C5.78359 13.9234 5.89193 13.832 6.00026 13.7489C8.60859 14.9625 11.4336 14.9625 14.0086 13.7489C14.1169 13.8403 14.2253 13.9234 14.3419 14.0066C13.9169 14.2643 13.4586 14.4804 12.9919 14.6633C13.2419 15.1537 13.5253 15.6275 13.8503 16.0681C15.1586 15.6608 16.4919 15.0456 17.8586 14.0232C18.1836 10.5569 17.3003 7.55606 15.5086 4.89606H15.4919ZM7.36693 12.1944C6.58359 12.1944 5.94193 11.4713 5.94193 10.5818C5.94193 9.69238 6.56693 8.96919 7.36693 8.96919C8.16693 8.96919 8.80026 9.69238 8.79193 10.5818C8.79193 11.4629 8.16693 12.1944 7.36693 12.1944ZM12.6253 12.1944C11.8419 12.1944 11.2003 11.4713 11.2003 10.5818C11.2003 9.69238 11.8253 8.96919 12.6253 8.96919C13.4253 8.96919 14.0586 9.69238 14.0503 10.5818C14.0503 11.4629 13.4253 12.1944 12.6253 12.1944Z" fill="white"/>
</svg>
