<svg width="20" height="20" viewBox="0 0 20 20" fill="none" xmlns="http://www.w3.org/2000/svg">
<path d="M10 0C4.47708 0 0 4.46589 0 9.975C0 15.4841 4.47708 19.95 10 19.95C15.5229 19.95 20 15.4841 20 9.975C20 4.46589 15.5229 0 10 0ZM7.55208 14.1094H5.52708V7.60905H7.55208V14.1094ZM6.52708 6.81105C5.8875 6.81105 5.47396 6.35906 5.47396 5.80005C5.47396 5.2296 5.9 4.79112 6.55312 4.79112C7.20625 4.79112 7.60625 5.2296 7.61875 5.80005C7.61875 6.35906 7.20625 6.81105 6.52708 6.81105ZM14.9479 14.1094H12.9229V10.507C12.9229 9.66848 12.6292 9.09907 11.8969 9.09907C11.3375 9.09907 11.0052 9.48456 10.8583 9.85551C10.8042 9.98747 10.7906 10.1745 10.7906 10.3605V14.1084H8.76458V9.68199C8.76458 8.87048 8.73854 8.19197 8.71146 7.60802H10.4708L10.5635 8.51096H10.6042C10.8708 8.08702 11.524 7.46151 12.6167 7.46151C13.949 7.46151 14.9479 8.35198 14.9479 10.2659V14.1094Z" fill="white"/>
</svg>
