<svg width="145" height="27" viewBox="0 0 145 27" fill="none" xmlns="http://www.w3.org/2000/svg">
<path d="M7.04 3.08C8.816 3.08 10.368 3.44 11.696 4.16C13.04 4.864 14.072 5.856 14.792 7.136C15.512 8.416 15.872 9.88 15.872 11.528C15.872 13.16 15.504 14.616 14.768 15.896C14.048 17.176 13.016 18.184 11.672 18.92C10.344 19.64 8.8 20 7.04 20H0.344V3.08H7.04ZM6.68 15.848C8.056 15.848 9.136 15.472 9.92 14.72C10.704 13.968 11.096 12.904 11.096 11.528C11.096 10.136 10.704 9.064 9.92 8.312C9.136 7.544 8.056 7.16 6.68 7.16H5.048V15.848H6.68ZM20.3684 5.288C19.5364 5.288 18.8644 5.064 18.3524 4.616C17.8564 4.152 17.6084 3.576 17.6084 2.888C17.6084 2.184 17.8564 1.6 18.3524 1.136C18.8644 0.671999 19.5364 0.439999 20.3684 0.439999C21.1844 0.439999 21.8404 0.671999 22.3364 1.136C22.8484 1.6 23.1044 2.184 23.1044 2.888C23.1044 3.576 22.8484 4.152 22.3364 4.616C21.8404 5.064 21.1844 5.288 20.3684 5.288ZM22.6964 6.536V20H17.9924V6.536H22.6964ZM30.3433 6.368C31.2553 6.368 32.0473 6.552 32.7193 6.92C33.4073 7.288 33.9353 7.784 34.3033 8.408V6.536H39.0073V19.856C39.0073 21.12 38.7673 22.256 38.2873 23.264C37.8073 24.288 37.0553 25.104 36.0312 25.712C35.0233 26.32 33.7433 26.624 32.1913 26.624C30.1113 26.624 28.4473 26.136 27.1992 25.16C25.9513 24.184 25.2393 22.856 25.0633 21.176H29.6953C29.7913 21.608 30.0313 21.944 30.4153 22.184C30.7993 22.424 31.2953 22.544 31.9033 22.544C33.5033 22.544 34.3033 21.648 34.3033 19.856V18.128C33.9353 18.752 33.4073 19.248 32.7193 19.616C32.0473 19.984 31.2553 20.168 30.3433 20.168C29.2713 20.168 28.2953 19.888 27.4153 19.328C26.5513 18.768 25.8633 17.968 25.3513 16.928C24.8553 15.872 24.6073 14.648 24.6073 13.256C24.6073 11.864 24.8553 10.648 25.3513 9.608C25.8633 8.568 26.5513 7.768 27.4153 7.208C28.2953 6.648 29.2713 6.368 30.3433 6.368ZM34.3033 13.256C34.3033 12.392 34.0633 11.712 33.5833 11.216C33.1193 10.72 32.5433 10.472 31.8553 10.472C31.1513 10.472 30.5673 10.72 30.1033 11.216C29.6393 11.696 29.4073 12.376 29.4073 13.256C29.4073 14.12 29.6393 14.808 30.1033 15.32C30.5673 15.816 31.1513 16.064 31.8553 16.064C32.5433 16.064 33.1193 15.816 33.5833 15.32C34.0633 14.824 34.3033 14.136 34.3033 13.256ZM44.0638 5.288C43.2318 5.288 42.5598 5.064 42.0478 4.616C41.5518 4.152 41.3038 3.576 41.3038 2.888C41.3038 2.184 41.5518 1.6 42.0478 1.136C42.5598 0.671999 43.2318 0.439999 44.0638 0.439999C44.8798 0.439999 45.5358 0.671999 46.0318 1.136C46.5438 1.6 46.7998 2.184 46.7998 2.888C46.7998 3.576 46.5438 4.152 46.0318 4.616C45.5358 5.064 44.8798 5.288 44.0638 5.288ZM46.3918 6.536V20H41.6878V6.536H46.3918ZM57.0146 15.992V20H54.9746C51.5346 20 49.8146 18.296 49.8146 14.888V10.448H48.1586V6.536H49.8146V3.272H54.5426V6.536H56.9906V10.448H54.5426V14.96C54.5426 15.328 54.6226 15.592 54.7826 15.752C54.9586 15.912 55.2466 15.992 55.6466 15.992H57.0146ZM58.4041 13.256C58.4041 11.864 58.6521 10.648 59.1481 9.608C59.6601 8.568 60.3481 7.768 61.2121 7.208C62.0921 6.648 63.0681 6.368 64.1401 6.368C65.0681 6.368 65.8681 6.552 66.5401 6.92C67.2121 7.288 67.7321 7.784 68.1001 8.408V6.536H72.8041V20H68.1001V18.128C67.7321 18.752 67.2041 19.248 66.5161 19.616C65.8441 19.984 65.0521 20.168 64.1401 20.168C63.0681 20.168 62.0921 19.888 61.2121 19.328C60.3481 18.768 59.6601 17.968 59.1481 16.928C58.6521 15.872 58.4041 14.648 58.4041 13.256ZM68.1001 13.256C68.1001 12.392 67.8601 11.712 67.3801 11.216C66.9161 10.72 66.3401 10.472 65.6521 10.472C64.9481 10.472 64.3641 10.72 63.9001 11.216C63.4361 11.696 63.2041 12.376 63.2041 13.256C63.2041 14.12 63.4361 14.808 63.9001 15.32C64.3641 15.816 64.9481 16.064 65.6521 16.064C66.3401 16.064 66.9161 15.816 67.3801 15.32C67.8601 14.824 68.1001 14.136 68.1001 13.256ZM80.1886 2.24V20H75.4846V2.24H80.1886Z" fill="white"/>
<path d="M99.3314 3.08L93.4994 20H87.4754L81.6194 3.08H86.6594L90.4994 15.296L94.3154 3.08H99.3314ZM103.173 5.288C102.341 5.288 101.669 5.064 101.157 4.616C100.661 4.152 100.413 3.576 100.413 2.888C100.413 2.184 100.661 1.6 101.157 1.136C101.669 0.671999 102.341 0.439999 103.173 0.439999C103.989 0.439999 104.645 0.671999 105.141 1.136C105.653 1.6 105.909 2.184 105.909 2.888C105.909 3.576 105.653 4.152 105.141 4.616C104.645 5.064 103.989 5.288 103.173 5.288ZM105.501 6.536V20H100.797V6.536H105.501ZM114.636 15.56L117.156 6.536H122.172L117.54 20H111.684L107.052 6.536H112.068L114.636 15.56ZM126.142 5.288C125.31 5.288 124.638 5.064 124.126 4.616C123.63 4.152 123.382 3.576 123.382 2.888C123.382 2.184 123.63 1.6 124.126 1.136C124.638 0.671999 125.31 0.439999 126.142 0.439999C126.958 0.439999 127.614 0.671999 128.11 1.136C128.622 1.6 128.878 2.184 128.878 2.888C128.878 3.576 128.622 4.152 128.11 4.616C127.614 5.064 126.958 5.288 126.142 5.288ZM128.47 6.536V20H123.766V6.536H128.47ZM130.381 13.256C130.381 11.864 130.629 10.648 131.125 9.608C131.637 8.568 132.333 7.768 133.213 7.208C134.093 6.648 135.069 6.368 136.141 6.368C137.005 6.368 137.773 6.552 138.445 6.92C139.133 7.272 139.669 7.76 140.053 8.384V2.24H144.781V20H140.053V18.128C139.685 18.752 139.165 19.248 138.493 19.616C137.821 19.984 137.029 20.168 136.117 20.168C135.045 20.168 134.069 19.888 133.189 19.328C132.325 18.768 131.637 17.968 131.125 16.928C130.629 15.872 130.381 14.648 130.381 13.256ZM140.077 13.256C140.077 12.392 139.837 11.712 139.357 11.216C138.893 10.72 138.317 10.472 137.629 10.472C136.925 10.472 136.341 10.72 135.877 11.216C135.413 11.696 135.181 12.376 135.181 13.256C135.181 14.12 135.413 14.808 135.877 15.32C136.341 15.816 136.925 16.064 137.629 16.064C138.317 16.064 138.893 15.816 139.357 15.32C139.837 14.824 140.077 14.136 140.077 13.256Z" fill="url(#paint0_linear_1_66)"/>
<defs>
<linearGradient id="paint0_linear_1_66" x1="63.3889" y1="-6" x2="185.327" y2="30.4593" gradientUnits="userSpaceOnUse">
<stop offset="0.265916" stop-color="#08DDFA"/>
<stop offset="0.659781" stop-color="#D216BE" stop-opacity="0.93"/>
</linearGradient>
</defs>
</svg>
