<svg width="20" height="20" viewBox="0 0 20 20" fill="none" xmlns="http://www.w3.org/2000/svg">
<path d="M10 0C15.5286 0 20 4.46025 20 9.975C20 15.4898 15.5286 19.95 10 19.95C4.47143 19.95 0 15.4898 0 9.975C0 4.46025 4.47143 0 10 0ZM8.17143 15.2333C12.6 15.2333 15.0286 11.571 15.0286 8.39325V8.07975C15.5 7.73775 15.9143 7.31025 16.2286 6.82575C15.8 7.011 15.3286 7.13925 14.8429 7.2105C15.3429 6.91125 15.7286 6.441 15.9 5.88525C15.4286 6.156 14.9143 6.3555 14.3714 6.4695C13.9286 5.99925 13.3 5.71425 12.6143 5.71425C11.2857 5.71425 10.2 6.79725 10.2 8.1225C10.2 8.30775 10.2143 8.493 10.2714 8.664C8.27143 8.56425 6.48571 7.6095 5.3 6.156C5.1 6.51225 4.97143 6.9255 4.97143 7.36725C4.97143 8.19375 5.4 8.93475 6.04286 9.36225C5.64286 9.36225 5.27143 9.24825 4.95714 9.063V9.0915C4.95714 10.26 5.78571 11.229 6.88571 11.457C6.68571 11.514 6.47143 11.5425 6.25714 11.5425C6.1 11.5425 5.95714 11.5283 5.8 11.4998C6.1 12.4545 7 13.1528 8.04286 13.167C7.21429 13.8083 6.17143 14.193 5.04286 14.193C4.84286 14.193 4.65714 14.193 4.47143 14.1645C5.52857 14.8485 6.8 15.2475 8.15714 15.2475" fill="white"/>
</svg>
